<svg xmlns="http://www.w3.org/2000/svg" viewBox="0 0 1200 800">
  <!-- Background -->
  <rect width="1200" height="800" fill="#f5f7fa"/>
  
  <!-- Header -->
  <rect x="0" y="0" width="1200" height="70" fill="#ffffff" stroke="#e1e4e8" stroke-width="1"/>
  <text x="30" y="43" font-family="Arial" font-size="24" font-weight="bold" fill="#333333">SocialGuardian</text>
  
  <!-- Navigation buttons -->
  <rect x="650" y="20" width="90" height="30" rx="4" fill="#ffffff" stroke="#e1e4e8" stroke-width="1"/>
  <text x="670" y="40" font-family="Arial" font-size="14" fill="#333333">Dashboard</text>
  
  <rect x="750" y="20" width="90" height="30" rx="4" fill="#ffffff" stroke="#e1e4e8" stroke-width="1"/>
  <text x="765" y="40" font-family="Arial" font-size="14" fill="#333333">Content</text>
  
  <rect x="850" y="20" width="90" height="30" rx="4" fill="#ffffff" stroke="#e1e4e8" stroke-width="1"/>
  <text x="865" y="40" font-family="Arial" font-size="14" fill="#333333">Analytics</text>
  
  <rect x="950" y="20" width="90" height="30" rx="4" fill="#4a6ee0" stroke="none"/>
  <text x="965" y="40" font-family="Arial" font-size="14" fill="#ffffff">Guardian</text>
  
  <rect x="1050" y="20" width="120" height="30" rx="15" fill="#0366d6" stroke="none"/>
  <text x="1072" y="40" font-family="Arial" font-size="14" fill="#ffffff">Upgrade Plan</text>
  
  <!-- Sidebar -->
  <rect x="0" y="70" width="240" height="730" fill="#ffffff" stroke="#e1e4e8" stroke-width="1"/>
  
  <!-- Sidebar sections -->
  <text x="20" y="100" font-family="Arial" font-size="12" font-weight="bold" fill="#6a737d">ACCOUNTS</text>
  
  <!-- Account 1 -->
  <rect x="20" y="120" width="200" height="50" rx="4" fill="#f1f8ff" stroke="#0366d6" stroke-width="1"/>
  <circle cx="45" cy="145" r="15" fill="#0366d6"/>
  <text x="45" y="150" font-family="Arial" font-size="14" fill="#ffffff" text-anchor="middle">IG</text>
  <text x="70" y="140" font-family="Arial" font-size="14" fill="#333333">@yourbrand</text>
  <text x="70" y="158" font-family="Arial" font-size="12" fill="#6a737d">12.4K followers</text>
  
  <!-- Account 2 -->
  <rect x="20" y="180" width="200" height="50" rx="4" fill="#ffffff" stroke="#e1e4e8" stroke-width="1"/>
  <circle cx="45" cy="205" r="15" fill="#1da1f2"/>
  <text x="45" y="210" font-family="Arial" font-size="14" fill="#ffffff" text-anchor="middle">TW</text>
  <text x="70" y="200" font-family="Arial" font-size="14" fill="#333333">@yourbrand</text>
  <text x="70" y="218" font-family="Arial" font-size="12" fill="#6a737d">8.7K followers</text>
  
  <!-- Add account button -->
  <rect x="20" y="240" width="200" height="40" rx="4" fill="#ffffff" stroke="#e1e4e8" stroke-width="1" stroke-dasharray="4,2"/>
  <text x="120" y="265" font-family="Arial" font-size="14" fill="#0366d6" text-anchor="middle">+ Add Account</text>
  
  <!-- Sidebar sections -->
  <text x="20" y="310" font-family="Arial" font-size="12" font-weight="bold" fill="#6a737d">GUARDIAN TOOLS</text>
  
  <!-- Tool buttons -->
  <rect x="20" y="330" width="200" height="40" rx="4" fill="#f1f8ff" stroke="#0366d6" stroke-width="1"/>
  <text x="50" y="355" font-family="Arial" font-size="14" fill="#0366d6">Follower Backup</text>
  
  <rect x="20" y="380" width="200" height="40" rx="4" fill="#ffffff" stroke="#e1e4e8" stroke-width="1"/>
  <text x="50" y="405" font-family="Arial" font-size="14" fill="#333333">Recovery Messages</text>
  
  <rect x="20" y="430" width="200" height="40" rx="4" fill="#ffffff" stroke="#e1e4e8" stroke-width="1"/>
  <text x="50" y="455" font-family="Arial" font-size="14" fill="#333333">Security Settings</text>
  
  <rect x="20" y="480" width="200" height="40" rx="4" fill="#ffffff" stroke="#e1e4e8" stroke-width="1"/>
  <text x="50" y="505" font-family="Arial" font-size="14" fill="#333333">Backup History</text>
  
  <!-- Main Content -->
  <!-- Page header -->
  <rect x="270" y="90" width="900" height="60" rx="0" fill="transparent" stroke="none"/>
  <text x="270" y="120" font-family="Arial" font-size="24" font-weight="bold" fill="#333333">Account Guardian: Follower Backup</text>
  <text x="270" y="145" font-family="Arial" font-size="14" fill="#6a737d">Protect your social audience with secure follower backups</text>
  
  <!-- Status cards -->
  <rect x="270" y="170" width="270" height="120" rx="6" fill="#ffffff" stroke="#e1e4e8" stroke-width="1"/>
  <circle cx="300" cy="220" r="25" fill="#28a745" fill-opacity="0.2" stroke="#28a745" stroke-width="2"/>
  <text x="300" y="225" font-family="Arial" font-size="16" fill="#28a745" text-anchor="middle">✓</text>
  <text x="340" y="205" font-family="Arial" font-size="14" font-weight="bold" fill="#333333">Instagram Backup</text>
  <text x="340" y="230" font-family="Arial" font-size="14" fill="#6a737d">Last backup: Today, 08:30 AM</text>
  <text x="340" y="250" font-family="Arial" font-size="14" fill="#28a745">Protected: 12,450 followers</text>
  
  <rect x="560" y="170" width="270" height="120" rx="6" fill="#ffffff" stroke="#e1e4e8" stroke-width="1"/>
  <circle cx="590" cy="220" r="25" fill="#28a745" fill-opacity="0.2" stroke="#28a745" stroke-width="2"/>
  <text x="590" y="225" font-family="Arial" font-size="16" fill="#28a745" text-anchor="middle">✓</text>
  <text x="630" y="205" font-family="Arial" font-size="14" font-weight="bold" fill="#333333">Twitter Backup</text>
  <text x="630" y="230" font-family="Arial" font-size="14" fill="#6a737d">Last backup: Today, 09:15 AM</text>
  <text x="630" y="250" font-family="Arial" font-size="14" fill="#28a745">Protected: 8,712 followers</text>
  
  <rect x="850" y="170" width="270" height="120" rx="6" fill="#ffffff" stroke="#e1e4e8" stroke-width="1"/>
  <circle cx="880" cy="220" r="25" fill="#f7e8c3" stroke="#e5c24b" stroke-width="2"/>
  <text x="880" y="225" font-family="Arial" font-size="16" fill="#e5c24b" text-anchor="middle">!</text>
  <text x="920" y="205" font-family="Arial" font-size="14" font-weight="bold" fill="#333333">Facebook Page</text>
  <text x="920" y="230" font-family="Arial" font-size="14" fill="#6a737d">Not connected</text>
  <text x="920" y="250" font-family="Arial" font-size="14" fill="#0366d6">Connect account →</text>
  
  <!-- Backup details panel -->
  <rect x="270" y="310" width="850" height="400" rx="6" fill="#ffffff" stroke="#e1e4e8" stroke-width="1"/>
  <text x="300" y="350" font-family="Arial" font-size="18" font-weight="bold" fill="#333333">Instagram Backup Details</text>
  
  <!-- Stats row -->
  <text x="300" y="390" font-family="Arial" font-size="14" font-weight="bold" fill="#333333">Followers Protected:</text>
  <text x="430" y="390" font-family="Arial" font-size="14" fill="#333333">12,450</text>
  
  <text x="550" y="390" font-family="Arial" font-size="14" font-weight="bold" fill="#333333">Last Backup:</text>
  <text x="650" y="390" font-family="Arial" font-size="14" fill="#333333">Mar 17, 2025 08:30 AM</text>
  
  <text x="800" y="390" font-family="Arial" font-size="14" font-weight="bold" fill="#333333">Backup Size:</text>
  <text x="900" y="390" font-family="Arial" font-size="14" fill="#333333">2.4 MB</text>
  
  <line x1="300" y1="410" x2="1090" y2="410" stroke="#e1e4e8" stroke-width="1"/>
  
  <!-- Backup history -->
  <text x="300" y="440" font-family="Arial" font-size="16" font-weight="bold" fill="#333333">Backup History</text>
  
  <!-- Table header -->
  <rect x="300" y="460" width="790" height="40" rx="4" fill="#f6f8fa" stroke="none"/>
  <text x="320" y="485" font-family="Arial" font-size="14" font-weight="bold" fill="#333333">Date</text>
  <text x="500" y="485" font-family="Arial" font-size="14" font-weight="bold" fill="#333333">Followers</text>
  <text x="620" y="485" font-family="Arial" font-size="14" font-weight="bold" fill="#333333">Change</text>
  <text x="730" y="485" font-family="Arial" font-size="14" font-weight="bold" fill="#333333">Status</text>
  <text x="970" y="485" font-family="Arial" font-size="14" font-weight="bold" fill="#333333">Actions</text>
  
  <!-- Table rows -->
  <line x1="300" y1="500" x2="1090" y2="500" stroke="#e1e4e8" stroke-width="1"/>
  <text x="320" y="525" font-family="Arial" font-size="14" fill="#333333">Mar 17, 2025 08:30 AM</text>
  <text x="500" y="525" font-family="Arial" font-size="14" fill="#333333">12,450</text>
  <text x="620" y="525" font-family="Arial" font-size="14" fill="#28a745">+56</text>
  <rect x="730" y="510" width="70" height="25" rx="12" fill="#dff0d8" stroke="none"/>
  <text x="765" y="525" font-family="Arial" font-size="12" fill="#28a745" text-anchor="middle">Complete</text>
  <text x="970" y="525" font-family="Arial" font-size="14" fill="#0366d6">View • Download</text>
  
  <line x1="300" y1="540" x2="1090" y2="540" stroke="#e1e4e8" stroke-width="1"/>
  <text x="320" y="565" font-family="Arial" font-size="14" fill="#333333">Mar 16, 2025 08:30 AM</text>
  <text x="500" y="565" font-family="Arial" font-size="14" fill="#333333">12,394</text>
  <text x="620" y="565" font-family="Arial" font-size="14" fill="#28a745">+42</text>
  <rect x="730" y="550" width="70" height="25" rx="12" fill="#dff0d8" stroke="none"/>
  <text x="765" y="565" font-family="Arial" font-size="12" fill="#28a745" text-anchor="middle">Complete</text>
  <text x="970" y="565" font-family="Arial" font-size="14" fill="#0366d6">View • Download</text>
  
  <line x1="300" y1="580" x2="1090" y2="580" stroke="#e1e4e8" stroke-width="1"/>
  <text x="320" y="605" font-family="Arial" font-size="14" fill="#333333">Mar 15, 2025 08:30 AM</text>
  <text x="500" y="605" font-family="Arial" font-size="14" fill="#333333">12,352</text>
  <text x="620" y="605" font-family="Arial" font-size="14" fill="#28a745">+37</text>
  <rect x="730" y="590" width="70" height="25" rx="12" fill="#dff0d8" stroke="none"/>
  <text x="765" y="605" font-family="Arial" font-size="12" fill="#28a745" text-anchor="middle">Complete</text>
  <text x="970" y="605" font-family="Arial" font-size="14" fill="#0366d6">View • Download</text>
  
  <!-- Action buttons -->
  <rect x="300" y="640" width="210" height="40" rx="4" fill="#0366d6" stroke="none"/>
  <text x="370" y="665" font-family="Arial" font-size="14" fill="#ffffff" text-anchor="middle">Manual Backup Now</text>
  
  <rect x="520" y="640" width="250" height="40" rx="4" fill="#ffffff" stroke="#0366d6" stroke-width="1"/>
  <text x="610" y="665" font-family="Arial" font-size="14" fill="#0366d6" text-anchor="middle">Generate Recovery Messages</text>
  
  <rect x="780" y="640" width="190" height="40" rx="4" fill="#ffffff" stroke="#e1e4e8" stroke-width="1"/>
  <text x="860" y="665" font-family="Arial" font-size="14" fill="#333333" text-anchor="middle">Backup Settings</text>
  
  <!-- Auto backup notice -->
  <rect x="300" y="700" width="670" height="40" rx="4" fill="#f8f9fa" stroke="#e1e4e8" stroke-width="1"/>
  <text x="320" y="725" font-family="Arial" font-size="14" fill="#6a737d">Auto-backup is enabled. Your followers are backed up daily at 08:30 AM (VIP Plan feature)</text>
</svg>
